<svg width="187" height="106" viewBox="0 0 187 106" fill="none" xmlns="http://www.w3.org/2000/svg">
<path d="M39.4957 78.4228C32.2414 78.4228 26.5991 84.4552 26.5991 92.2113C26.5991 99.9674 32.2414 106 39.4957 106C46.75 106 52.3923 99.9674 52.3923 92.2113C52.3923 84.4552 46.75 78.4228 39.4957 78.4228ZM116.069 0H109.621V16.8048H133.802L116.069 0ZM0.805961 94.7967H16.9267C16.9267 94.7967 17.7327 68.9431 41.1077 68.9431C58.4375 68.9431 61.2586 94.7967 61.2586 94.7967H101.56V0H0L0.805961 94.7967ZM153.147 78.4228C145.892 78.4228 140.25 84.4552 140.25 92.2113C140.25 99.9674 145.892 106 153.147 106C160.401 106 166.043 99.9674 166.043 92.2113C166.043 84.4552 159.998 78.4228 153.147 78.4228ZM137.832 21.5447H109.621V94.7967H133.802C133.802 94.7967 130.578 73.252 153.953 73.252C171.686 73.252 171.282 94.7967 171.282 94.7967H186.194L187 62.4797L137.832 21.5447ZM133.802 77.561H117.681V68.9431H133.802V77.561ZM132.19 62.0487L116.069 51.7073V27.5772H132.19L174.104 62.0487H132.19Z" fill="white" fill-opacity="0.4"/>
</svg>
