<svg width="140" height="111" viewBox="0 0 140 111" fill="none" xmlns="http://www.w3.org/2000/svg">
<path d="M122.909 0.72876H17.1198C7.67639 0.72876 0 8.65426 0 18.4041V93.0534C0 102.803 7.67639 110.729 17.1198 110.729H122.88C132.324 110.729 140 102.803 140 93.0534V18.434C140.029 8.68417 132.353 0.72876 122.909 0.72876ZM132.208 93.0534C132.208 98.347 128.036 102.654 122.909 102.654H17.1198C11.9926 102.654 7.82123 98.347 7.82123 93.0534V18.434C7.82123 13.1404 11.9926 8.83371 17.1198 8.83371H122.88C128.007 8.83371 132.179 13.1404 132.179 18.434V93.0534H132.208Z" fill="white" fill-opacity="0.4"/>
<path d="M88.293 54.8016L122.533 23.0996C124.126 21.6042 124.271 19.0621 122.822 17.3872C121.374 15.7423 118.912 15.5928 117.289 17.0882L70.0724 60.8429L60.8608 52.3492C60.8318 52.3193 60.8028 52.2894 60.8028 52.2595C60.6 52.0501 60.3973 51.8707 60.1655 51.6912L22.6816 17.0583C21.0594 15.5629 18.5972 15.7124 17.1488 17.3872C15.7004 19.0621 15.8452 21.6042 17.4674 23.0996L52.1126 55.0708L17.6123 88.4177C16.048 89.943 15.9611 92.4851 17.4385 94.13C18.2206 94.9674 19.2634 95.4161 20.3062 95.4161C21.2622 95.4161 22.2181 95.0572 22.9712 94.3394L57.993 60.5139L67.4943 69.2769C68.2475 69.9647 69.1744 70.2937 70.1014 70.2937C71.0284 70.2937 71.9843 69.9348 72.7085 69.247L82.4705 60.2149L117.289 94.3693C118.043 95.117 119.028 95.4759 119.983 95.4759C121.026 95.4759 122.04 95.0572 122.822 94.2198C124.3 92.6048 124.242 90.0327 122.677 88.5074L88.293 54.8016Z" fill="white" fill-opacity="0.4"/>
</svg>
