<svg width="100" height="70" viewBox="0 0 100 70" fill="none" xmlns="http://www.w3.org/2000/svg">
<path d="M21.1207 51.7886C17.2414 51.7886 14.2241 55.7723 14.2241 60.8943C14.2241 66.0162 17.2414 70 21.1207 70C25 70 28.0173 66.0162 28.0173 60.8943C28.0173 55.7723 25 51.7886 21.1207 51.7886ZM62.069 0H58.6208V11.0975H71.5518L62.069 0ZM0.430995 62.6016H9.05169C9.05169 62.6016 9.48273 45.5284 21.9827 45.5284C31.25 45.5284 32.7586 62.6016 32.7586 62.6016H54.3104V0H0L0.430995 62.6016ZM81.8966 51.7886C78.0173 51.7886 75 55.7723 75 60.8943C75 66.0162 78.0173 70 81.8966 70C85.7759 70 88.7932 66.0162 88.7932 60.8943C88.7932 55.7723 85.5604 51.7886 81.8966 51.7886ZM73.707 14.2276H58.6208V62.6016H71.5518C71.5518 62.6016 69.8277 48.374 82.3277 48.374C91.8104 48.374 91.5949 62.6016 91.5949 62.6016H99.5691L100 41.2602L73.707 14.2276ZM71.5518 51.2195H62.9311V45.5284H71.5518V51.2195ZM70.6897 40.9756L62.069 34.1463V18.2114H70.6897L93.1035 40.9756H70.6897Z" fill="white" fill-opacity="0.4"/>
</svg>
