<svg width="100" height="80" viewBox="0 0 100 80" fill="none" xmlns="http://www.w3.org/2000/svg">
<path d="M87.7922 0H12.2284C5.48313 0 0 5.764 0 12.8548V67.1452C0 74.236 5.48313 80 12.2284 80H87.7715C94.5168 80 99.9999 74.236 99.9999 67.1452V12.8766C100.021 5.78575 94.5375 0 87.7922 0ZM94.434 67.1452C94.434 70.9951 91.4545 74.1272 87.7922 74.1272H12.2284C8.5661 74.1272 5.58659 70.9951 5.58659 67.1452V12.8766C5.58659 9.02664 8.5661 5.89451 12.2284 5.89451H87.7715C91.4338 5.89451 94.4134 9.02664 94.4134 12.8766V67.1452H94.434Z" fill="white" fill-opacity="0.4"/>
<path d="M63.0663 39.3256L87.5231 16.2696C88.6611 15.1821 88.7646 13.3333 87.73 12.1152C86.6955 10.9189 84.9367 10.8101 83.778 11.8977L50.0516 43.7193L43.4718 37.5421C43.4511 37.5203 43.4304 37.4986 43.4304 37.4768C43.2856 37.3246 43.1408 37.1941 42.9752 37.0635L16.201 11.8759C15.0423 10.7884 13.2835 10.8972 12.249 12.1152C11.2144 13.3333 11.3179 15.1821 12.4766 16.2696L37.2231 39.5214L12.5801 63.7737C11.4627 64.883 11.4007 66.7318 12.4559 67.9281C13.0146 68.5372 13.7594 68.8634 14.5043 68.8634C15.1871 68.8634 15.8699 68.6024 16.4079 68.0804L41.4234 43.4801L48.2101 49.8531C48.748 50.3534 49.4102 50.5926 50.0723 50.5926C50.7344 50.5926 51.4172 50.3316 51.9345 49.8314L58.9074 43.2626L83.778 68.1022C84.316 68.6459 85.0195 68.9069 85.7023 68.9069C86.4472 68.9069 87.1714 68.6024 87.73 67.9934C88.7853 66.8189 88.7439 64.9483 87.6266 63.839L63.0663 39.3256Z" fill="white" fill-opacity="0.4"/>
</svg>
