<svg width="104" height="26" viewBox="0 0 104 26" fill="none" xmlns="http://www.w3.org/2000/svg">
<path d="M30.2143 9.33624C30.7423 9.33624 31.1743 9.41624 31.5103 9.57624C31.8543 9.72824 32.1583 9.90824 32.4223 10.1162C32.5823 10.2362 32.7023 10.2522 32.7823 10.1642C32.8703 10.0682 32.9303 9.84824 32.9623 9.50424H33.2383C33.2223 9.80024 33.2103 10.1602 33.2023 10.5842C33.1943 11.0082 33.1903 11.5682 33.1903 12.2642H32.9143C32.8583 11.9202 32.8063 11.6482 32.7583 11.4482C32.7103 11.2402 32.6503 11.0642 32.5783 10.9202C32.5143 10.7762 32.4263 10.6322 32.3143 10.4882C32.0663 10.1602 31.7543 9.92424 31.3783 9.78024C31.0023 9.62824 30.6063 9.55224 30.1903 9.55224C29.7983 9.55224 29.4423 9.65224 29.1223 9.85224C28.8103 10.0442 28.5383 10.3242 28.3063 10.6922C28.0823 11.0602 27.9063 11.5042 27.7783 12.0242C27.6583 12.5442 27.5983 13.1282 27.5983 13.7762C27.5983 14.4482 27.6663 15.0442 27.8023 15.5642C27.9383 16.0762 28.1263 16.5082 28.3663 16.8602C28.6143 17.2122 28.9023 17.4802 29.2303 17.6642C29.5663 17.8402 29.9263 17.9282 30.3103 17.9282C30.6703 17.9282 31.0463 17.8562 31.4383 17.7122C31.8303 17.5682 32.1383 17.3362 32.3623 17.0162C32.5383 16.7842 32.6583 16.5322 32.7223 16.2602C32.7943 15.9882 32.8583 15.6082 32.9143 15.1202H33.1903C33.1903 15.8482 33.1943 16.4362 33.2023 16.8842C33.2103 17.3242 33.2223 17.6962 33.2383 18.0002H32.9623C32.9303 17.6562 32.8743 17.4402 32.7943 17.3522C32.7223 17.2642 32.5983 17.2762 32.4223 17.3882C32.1263 17.5962 31.8103 17.7802 31.4743 17.9402C31.1463 18.0922 30.7223 18.1682 30.2023 18.1682C29.4423 18.1682 28.7743 17.9962 28.1983 17.6522C27.6303 17.3082 27.1863 16.8122 26.8663 16.1642C26.5543 15.5162 26.3983 14.7362 26.3983 13.8242C26.3983 12.9282 26.5623 12.1442 26.8903 11.4722C27.2183 10.8002 27.6663 10.2762 28.2343 9.90024C28.8103 9.52424 29.4703 9.33624 30.2143 9.33624ZM40.156 9.33624C40.916 9.33624 41.58 9.50824 42.148 9.85224C42.724 10.1962 43.168 10.6922 43.48 11.3402C43.8 11.9802 43.96 12.7602 43.96 13.6802C43.96 14.5762 43.796 15.3602 43.468 16.0322C43.148 16.7042 42.7 17.2282 42.124 17.6042C41.548 17.9802 40.888 18.1682 40.144 18.1682C39.384 18.1682 38.716 17.9962 38.14 17.6522C37.572 17.3082 37.128 16.8122 36.808 16.1642C36.496 15.5162 36.34 14.7362 36.34 13.8242C36.34 12.9282 36.504 12.1442 36.832 11.4722C37.16 10.8002 37.608 10.2762 38.176 9.90024C38.752 9.52424 39.412 9.33624 40.156 9.33624ZM40.108 9.55224C39.588 9.55224 39.136 9.73224 38.752 10.0922C38.368 10.4522 38.068 10.9482 37.852 11.5802C37.644 12.2122 37.54 12.9442 37.54 13.7762C37.54 14.6242 37.656 15.3642 37.888 15.9962C38.128 16.6202 38.448 17.1042 38.848 17.4482C39.256 17.7842 39.704 17.9522 40.192 17.9522C40.712 17.9522 41.164 17.7722 41.548 17.4122C41.932 17.0522 42.228 16.5562 42.436 15.9242C42.652 15.2842 42.76 14.5522 42.76 13.7282C42.76 12.8722 42.64 12.1322 42.4 11.5082C42.168 10.8842 41.852 10.4042 41.452 10.0682C41.052 9.72424 40.604 9.55224 40.108 9.55224ZM54.2248 9.50424V9.74424C53.9528 9.75224 53.7448 9.79224 53.6008 9.86424C53.4648 9.93624 53.3728 10.0522 53.3248 10.2122C53.2768 10.3722 53.2528 10.6002 53.2528 10.8962V18.0602C53.2048 18.0602 53.1568 18.0602 53.1088 18.0602C53.0688 18.0602 53.0248 18.0602 52.9768 18.0602L47.9368 10.2722V16.6082C47.9368 16.8962 47.9608 17.1242 48.0088 17.2922C48.0648 17.4522 48.1688 17.5682 48.3208 17.6402C48.4808 17.7042 48.7168 17.7442 49.0288 17.7602V18.0002C48.8848 17.9842 48.6968 17.9762 48.4648 17.9762C48.2328 17.9682 48.0128 17.9642 47.8048 17.9642C47.6048 17.9642 47.4008 17.9682 47.1928 17.9762C46.9928 17.9762 46.8248 17.9842 46.6888 18.0002V17.7602C46.9608 17.7442 47.1648 17.7042 47.3008 17.6402C47.4448 17.5682 47.5408 17.4522 47.5888 17.2922C47.6368 17.1242 47.6608 16.8962 47.6608 16.6082V10.7762C47.6608 10.4802 47.6368 10.2642 47.5888 10.1282C47.5408 9.98424 47.4448 9.88824 47.3008 9.84024C47.1648 9.78424 46.9608 9.75224 46.6888 9.74424V9.50424C46.8248 9.51224 46.9928 9.52024 47.1928 9.52824C47.4008 9.53624 47.6048 9.54024 47.8048 9.54024C47.9808 9.54024 48.1488 9.53624 48.3088 9.52824C48.4688 9.52024 48.6128 9.51224 48.7408 9.50424L52.9768 16.0322V10.8962C52.9768 10.6002 52.9488 10.3722 52.8928 10.2122C52.8448 10.0522 52.7408 9.93624 52.5808 9.86424C52.4288 9.79224 52.1968 9.75224 51.8848 9.74424V9.50424C52.0288 9.51224 52.2168 9.52024 52.4488 9.52824C52.6888 9.53624 52.9088 9.54024 53.1088 9.54024C53.3168 9.54024 53.5208 9.53624 53.7208 9.52824C53.9288 9.52024 54.0968 9.51224 54.2248 9.50424ZM65.2315 18.2762L65.4115 18.3482C65.3155 18.6762 65.2035 18.9482 65.0755 19.1642C64.9555 19.3882 64.8155 19.5722 64.6555 19.7162C64.5035 19.8522 64.2955 19.9762 64.0315 20.0882C63.7755 20.2002 63.4435 20.2562 63.0355 20.2562C62.6115 20.2562 62.1995 20.1842 61.7995 20.0402C61.4075 19.9042 60.9995 19.7362 60.5755 19.5362C60.1515 19.3362 59.6835 19.1522 59.1715 18.9842C59.1155 18.9682 59.0635 18.9522 59.0155 18.9362C58.9675 18.9202 58.9235 18.9082 58.8835 18.9002C58.7315 18.9562 58.5675 19.0002 58.3915 19.0322C58.2155 19.0642 58.0475 19.0802 57.8875 19.0802C57.7275 19.0802 57.5955 19.0602 57.4915 19.0202C57.3875 18.9802 57.3355 18.9202 57.3355 18.8402C57.3355 18.6722 57.5515 18.5882 57.9835 18.5882C58.2635 18.5882 58.5635 18.6202 58.8835 18.6842C59.1715 18.6042 59.4195 18.5122 59.6275 18.4082C59.8355 18.3122 60.0475 18.2202 60.2635 18.1322C60.4875 18.0442 60.7555 17.9882 61.0675 17.9642L61.0795 18.1562C60.8395 18.1802 60.6315 18.2242 60.4555 18.2882C60.2795 18.3602 60.1035 18.4362 59.9275 18.5162C59.7515 18.5962 59.5435 18.6722 59.3035 18.7442C59.7035 18.8242 60.1395 18.9082 60.6115 18.9962C61.0835 19.0842 61.5395 19.1602 61.9795 19.2242C62.4195 19.2882 62.7955 19.3202 63.1075 19.3202C63.6835 19.3202 64.1355 19.2362 64.4635 19.0682C64.7995 18.9002 65.0555 18.6362 65.2315 18.2762ZM60.7075 9.33624C61.4675 9.33624 62.1315 9.50824 62.6995 9.85224C63.2755 10.1962 63.7195 10.6922 64.0315 11.3402C64.3515 11.9802 64.5115 12.7602 64.5115 13.6802C64.5115 14.5762 64.3475 15.3602 64.0195 16.0322C63.6995 16.7042 63.2515 17.2282 62.6755 17.6042C62.0995 17.9802 61.4395 18.1682 60.6955 18.1682C59.9355 18.1682 59.2675 17.9962 58.6915 17.6522C58.1235 17.3082 57.6795 16.8122 57.3595 16.1642C57.0475 15.5162 56.8915 14.7362 56.8915 13.8242C56.8915 12.9282 57.0555 12.1442 57.3835 11.4722C57.7115 10.8002 58.1595 10.2762 58.7275 9.90024C59.3035 9.52424 59.9635 9.33624 60.7075 9.33624ZM60.6595 9.55224C60.1395 9.55224 59.6875 9.73224 59.3035 10.0922C58.9195 10.4522 58.6195 10.9482 58.4035 11.5802C58.1955 12.2122 58.0915 12.9442 58.0915 13.7762C58.0915 14.6242 58.2075 15.3642 58.4395 15.9962C58.6795 16.6202 58.9995 17.1042 59.3995 17.4482C59.8075 17.7842 60.2555 17.9522 60.7435 17.9522C61.2635 17.9522 61.7155 17.7722 62.0995 17.4122C62.4835 17.0522 62.7795 16.5562 62.9875 15.9242C63.2035 15.2842 63.3115 14.5522 63.3115 13.7282C63.3115 12.8722 63.1915 12.1322 62.9515 11.5082C62.7195 10.8842 62.4035 10.4042 62.0035 10.0682C61.6035 9.72424 61.1555 9.55224 60.6595 9.55224ZM74.6197 9.50424V9.74424C74.3477 9.75224 74.1397 9.79224 73.9957 9.86424C73.8597 9.93624 73.7677 10.0522 73.7197 10.2122C73.6717 10.3722 73.6477 10.6002 73.6477 10.8962V14.5082C73.6477 15.0682 73.6117 15.5562 73.5397 15.9722C73.4677 16.3882 73.3397 16.7482 73.1557 17.0522C72.9557 17.3882 72.6637 17.6602 72.2797 17.8682C71.8957 18.0682 71.4557 18.1682 70.9597 18.1682C70.5757 18.1682 70.2077 18.1202 69.8557 18.0242C69.5117 17.9362 69.2077 17.7682 68.9437 17.5202C68.7117 17.2962 68.5277 17.0602 68.3917 16.8122C68.2637 16.5642 68.1757 16.2602 68.1277 15.9002C68.0797 15.5402 68.0557 15.0882 68.0557 14.5442V10.7762C68.0557 10.4802 68.0317 10.2642 67.9837 10.1282C67.9357 9.98424 67.8397 9.88824 67.6957 9.84024C67.5597 9.78424 67.3557 9.75224 67.0837 9.74424V9.50424C67.2517 9.51224 67.4717 9.52024 67.7437 9.52824C68.0157 9.53624 68.3077 9.54024 68.6197 9.54024C68.8997 9.54024 69.1757 9.53624 69.4477 9.52824C69.7277 9.52024 69.9597 9.51224 70.1437 9.50424V9.74424C69.8717 9.75224 69.6637 9.78424 69.5197 9.84024C69.3837 9.88824 69.2917 9.98424 69.2437 10.1282C69.1957 10.2642 69.1717 10.4802 69.1717 10.7762V14.7482C69.1717 15.1562 69.1917 15.5442 69.2317 15.9122C69.2717 16.2722 69.3517 16.5922 69.4717 16.8722C69.5997 17.1442 69.7917 17.3602 70.0477 17.5202C70.3037 17.6722 70.6437 17.7482 71.0677 17.7482C71.6757 17.7482 72.1437 17.6162 72.4717 17.3522C72.8077 17.0802 73.0397 16.7082 73.1677 16.2362C73.3037 15.7642 73.3717 15.2322 73.3717 14.6402V10.8962C73.3717 10.6002 73.3357 10.3722 73.2637 10.2122C73.1997 10.0522 73.0877 9.93624 72.9277 9.86424C72.7677 9.79224 72.5517 9.75224 72.2797 9.74424V9.50424C72.4237 9.51224 72.6117 9.52024 72.8437 9.52824C73.0837 9.53624 73.3037 9.54024 73.5037 9.54024C73.7117 9.54024 73.9157 9.53624 74.1157 9.52824C74.3237 9.52024 74.4917 9.51224 74.6197 9.50424ZM83.1114 9.50424C83.0794 9.78424 83.0554 10.0562 83.0394 10.3202C83.0314 10.5842 83.0274 10.7842 83.0274 10.9202C83.0274 11.0642 83.0314 11.2042 83.0394 11.3402C83.0474 11.4682 83.0554 11.5762 83.0634 11.6642H82.7874C82.7394 11.1922 82.6714 10.8202 82.5834 10.5482C82.4954 10.2682 82.3434 10.0722 82.1274 9.96024C81.9194 9.84024 81.6034 9.78024 81.1794 9.78024H80.1834C79.9114 9.78024 79.7034 9.80424 79.5594 9.85224C79.4234 9.89224 79.3314 9.98424 79.2834 10.1282C79.2354 10.2642 79.2114 10.4802 79.2114 10.7762V16.7282C79.2114 17.0162 79.2354 17.2322 79.2834 17.3762C79.3314 17.5202 79.4234 17.6162 79.5594 17.6642C79.7034 17.7042 79.9114 17.7242 80.1834 17.7242H81.0594C81.5634 17.7242 81.9434 17.6562 82.1994 17.5202C82.4634 17.3842 82.6514 17.1642 82.7634 16.8602C82.8834 16.5482 82.9714 16.1282 83.0274 15.6002H83.3034C83.2794 15.8162 83.2674 16.1042 83.2674 16.4642C83.2674 16.6162 83.2714 16.8362 83.2794 17.1242C83.2954 17.4042 83.3194 17.6962 83.3514 18.0002C82.9434 17.9842 82.4834 17.9762 81.9714 17.9762C81.4594 17.9682 81.0034 17.9642 80.6034 17.9642C80.4274 17.9642 80.1994 17.9642 79.9194 17.9642C79.6474 17.9642 79.3514 17.9682 79.0314 17.9762C78.7114 17.9762 78.3874 17.9802 78.0594 17.9882C77.7314 17.9882 77.4194 17.9922 77.1234 18.0002V17.7602C77.3954 17.7442 77.5994 17.7122 77.7354 17.6642C77.8794 17.6162 77.9754 17.5202 78.0234 17.3762C78.0714 17.2322 78.0954 17.0162 78.0954 16.7282V10.7762C78.0954 10.4802 78.0714 10.2642 78.0234 10.1282C77.9754 9.98424 77.8794 9.88824 77.7354 9.84024C77.5994 9.78424 77.3954 9.75224 77.1234 9.74424V9.50424C77.4194 9.51224 77.7314 9.52024 78.0594 9.52824C78.3874 9.52824 78.7114 9.53224 79.0314 9.54024C79.3514 9.54024 79.6474 9.54024 79.9194 9.54024C80.1994 9.54024 80.4274 9.54024 80.6034 9.54024C80.9714 9.54024 81.3874 9.54024 81.8514 9.54024C82.3234 9.53224 82.7434 9.52024 83.1114 9.50424ZM81.0474 13.6082C81.0474 13.6082 81.0474 13.6482 81.0474 13.7282C81.0474 13.8082 81.0474 13.8482 81.0474 13.8482H78.8514C78.8514 13.8482 78.8514 13.8082 78.8514 13.7282C78.8514 13.6482 78.8514 13.6082 78.8514 13.6082H81.0474ZM81.3954 12.0242C81.3634 12.4802 81.3474 12.8282 81.3474 13.0682C81.3554 13.3082 81.3594 13.5282 81.3594 13.7282C81.3594 13.9282 81.3634 14.1482 81.3714 14.3882C81.3794 14.6282 81.3994 14.9762 81.4314 15.4322H81.1554C81.1234 15.1762 81.0834 14.9282 81.0354 14.6882C80.9954 14.4402 80.8994 14.2402 80.7474 14.0882C80.6034 13.9282 80.3554 13.8482 80.0034 13.8482V13.6082C80.2674 13.6082 80.4674 13.5562 80.6034 13.4522C80.7474 13.3402 80.8514 13.2002 80.9154 13.0322C80.9794 12.8642 81.0234 12.6922 81.0474 12.5162C81.0714 12.3322 81.0954 12.1682 81.1194 12.0242H81.3954ZM88.6839 9.37224C89.0839 9.37224 89.3879 9.42024 89.5959 9.51624C89.8039 9.60424 89.9879 9.70424 90.1479 9.81624C90.2439 9.87224 90.3199 9.91624 90.3759 9.94824C90.4399 9.97224 90.4999 9.98424 90.5559 9.98424C90.6359 9.98424 90.6919 9.94024 90.7239 9.85224C90.7639 9.76424 90.7959 9.63224 90.8199 9.45624H91.0959C91.0879 9.59224 91.0759 9.75624 91.0599 9.94824C91.0519 10.1322 91.0439 10.3802 91.0359 10.6922C91.0359 10.9962 91.0359 11.4002 91.0359 11.9042H90.7599C90.7359 11.5202 90.6519 11.1522 90.5079 10.8002C90.3639 10.4482 90.1519 10.1602 89.8719 9.93624C89.5999 9.71224 89.2399 9.60024 88.7919 9.60024C88.3679 9.60024 88.0159 9.72824 87.7359 9.98424C87.4639 10.2402 87.3279 10.5762 87.3279 10.9922C87.3279 11.3522 87.4199 11.6562 87.6039 11.9042C87.7879 12.1442 88.0319 12.3642 88.3359 12.5642C88.6479 12.7562 88.9839 12.9642 89.3439 13.1882C89.7599 13.4442 90.1279 13.7002 90.4479 13.9562C90.7759 14.2042 91.0319 14.4802 91.2159 14.7842C91.4079 15.0882 91.5039 15.4562 91.5039 15.8882C91.5039 16.4002 91.3879 16.8242 91.1559 17.1602C90.9239 17.4962 90.6159 17.7482 90.2319 17.9162C89.8479 18.0842 89.4239 18.1682 88.9599 18.1682C88.5359 18.1682 88.1999 18.1202 87.9519 18.0242C87.7039 17.9282 87.4919 17.8282 87.3159 17.7242C87.1399 17.6122 87.0039 17.5562 86.9079 17.5562C86.8279 17.5562 86.7679 17.6002 86.7279 17.6882C86.6959 17.7762 86.6679 17.9082 86.6439 18.0842H86.3679C86.3839 17.9162 86.3919 17.7202 86.3919 17.4962C86.3999 17.2642 86.4039 16.9642 86.4039 16.5962C86.4119 16.2282 86.4159 15.7642 86.4159 15.2042H86.6919C86.7239 15.6842 86.8119 16.1322 86.9559 16.5482C87.1079 16.9642 87.3359 17.3002 87.6399 17.5562C87.9519 17.8042 88.3639 17.9282 88.8759 17.9282C89.1399 17.9282 89.3879 17.8762 89.6199 17.7722C89.8599 17.6602 90.0559 17.4882 90.2079 17.2562C90.3599 17.0162 90.4359 16.7082 90.4359 16.3322C90.4359 16.0042 90.3559 15.7202 90.1959 15.4802C90.0439 15.2322 89.8279 15.0042 89.5479 14.7962C89.2679 14.5802 88.9399 14.3602 88.5639 14.1362C88.1879 13.9042 87.8359 13.6682 87.5079 13.4282C87.1799 13.1882 86.9159 12.9122 86.7159 12.6002C86.5239 12.2802 86.4279 11.8962 86.4279 11.4482C86.4279 10.9762 86.5319 10.5882 86.7399 10.2842C86.9559 9.97224 87.2359 9.74424 87.5799 9.60024C87.9239 9.44824 88.2919 9.37224 88.6839 9.37224ZM100.876 9.50424C100.844 9.80824 100.82 10.1042 100.804 10.3922C100.796 10.6722 100.792 10.8882 100.792 11.0402C100.792 11.2322 100.796 11.4122 100.804 11.5802C100.812 11.7482 100.82 11.8962 100.828 12.0242H100.552C100.496 11.4642 100.42 11.0242 100.324 10.7042C100.228 10.3762 100.06 10.1402 99.8203 9.99624C99.5803 9.85224 99.2083 9.78024 98.7043 9.78024H98.0563V16.6082C98.0563 16.9282 98.0843 17.1682 98.1403 17.3282C98.2043 17.4882 98.3243 17.5962 98.5003 17.6522C98.6763 17.7082 98.9323 17.7442 99.2683 17.7602V18.0002C99.0603 17.9842 98.7963 17.9762 98.4763 17.9762C98.1563 17.9682 97.8323 17.9642 97.5043 17.9642C97.1443 17.9642 96.8043 17.9682 96.4843 17.9762C96.1723 17.9762 95.9203 17.9842 95.7283 18.0002V17.7602C96.0643 17.7442 96.3203 17.7082 96.4963 17.6522C96.6723 17.5962 96.7883 17.4882 96.8443 17.3282C96.9083 17.1682 96.9403 16.9282 96.9403 16.6082V9.78024H96.2923C95.7963 9.78024 95.4243 9.85224 95.1763 9.99624C94.9363 10.1402 94.7683 10.3762 94.6723 10.7042C94.5763 11.0242 94.5003 11.4642 94.4443 12.0242H94.1683C94.1843 11.8962 94.1923 11.7482 94.1923 11.5802C94.2003 11.4122 94.2043 11.2322 94.2043 11.0402C94.2043 10.8882 94.1963 10.6722 94.1803 10.3922C94.1723 10.1042 94.1523 9.80824 94.1203 9.50424C94.4563 9.51224 94.8203 9.52024 95.2123 9.52824C95.6123 9.53624 96.0123 9.54024 96.4123 9.54024C96.8123 9.54024 97.1763 9.54024 97.5043 9.54024C97.8323 9.54024 98.1923 9.54024 98.5843 9.54024C98.9843 9.54024 99.3843 9.53624 99.7843 9.52824C100.184 9.52024 100.548 9.51224 100.876 9.50424Z" fill="#555248"/>
<path d="M21.7489 15.5334C21.1682 17.375 19.8755 19.6576 17.3445 21.0106C15.7759 21.8491 14.0726 22.1838 12.4199 22.0714L12.4625 3.94246C12.5153 3.93811 12.5683 3.93417 12.6215 3.93064C13.1086 3.9271 13.709 3.94873 14.3243 4.01844C14.5988 4.04954 14.8708 4.08963 15.1332 4.13974C15.7074 4.27534 16.2679 4.46599 16.8062 4.70915C18.5679 5.50503 20.0902 6.86274 21.075 8.69373C21.8877 10.2049 22.2284 11.8412 22.1486 13.4363C22.1153 13.9737 21.9947 14.7147 21.7489 15.5334ZM11.4612 4.07421L11.4191 21.9478C8.77051 21.472 6.35942 19.8389 4.98987 17.2925C2.60875 12.8653 4.27786 7.35058 8.72033 4.97571C9.29544 4.66827 10.2781 4.28757 11.4612 4.07421Z" stroke="url(#paint0_linear_66_126)"/>
<defs>
<linearGradient id="paint0_linear_66_126" x1="3.76743" y1="11.7234" x2="24.0371" y2="12.9999" gradientUnits="userSpaceOnUse">
<stop offset="0.288448" stop-color="#555248"/>
<stop offset="0.780176" stop-color="#1B1A17" stop-opacity="0"/>
</linearGradient>
</defs>
</svg>
