<svg width="140" height="110" viewBox="0 0 140 110" fill="none" xmlns="http://www.w3.org/2000/svg">
<path d="M122.909 0H17.1198C7.67639 0 0 7.9255 0 17.6754V92.3246C0 102.075 7.67639 110 17.1198 110H122.88C132.324 110 140 102.075 140 92.3246V17.7053C140.029 7.95541 132.353 0 122.909 0ZM132.208 92.3246C132.208 97.6183 128.036 101.925 122.909 101.925H17.1198C11.9926 101.925 7.82123 97.6183 7.82123 92.3246V17.7053C7.82123 12.4116 11.9926 8.10495 17.1198 8.10495H122.88C128.007 8.10495 132.179 12.4116 132.179 17.7053V92.3246H132.208Z" fill="white" fill-opacity="0.4"/>
<path d="M88.293 54.0728L122.533 22.3708C124.126 20.8755 124.271 18.3333 122.822 16.6585C121.374 15.0136 118.912 14.864 117.289 16.3594L70.0724 60.1142L60.8608 51.6204C60.8318 51.5905 60.8028 51.5606 60.8028 51.5307C60.6 51.3213 60.3973 51.1419 60.1655 50.9625L22.6816 16.3295C21.0594 14.8341 18.5972 14.9837 17.1488 16.6585C15.7004 18.3333 15.8452 20.8755 17.4674 22.3708L52.1126 54.342L17.6123 87.6889C16.048 89.2142 15.9611 91.7564 17.4385 93.4013C18.2206 94.2387 19.2634 94.6873 20.3062 94.6873C21.2622 94.6873 22.2181 94.3284 22.9712 93.6106L57.993 59.7852L67.4943 68.5481C68.2475 69.236 69.1744 69.565 70.1014 69.565C71.0284 69.565 71.9843 69.2061 72.7085 68.5182L82.4705 59.4861L117.289 93.6405C118.043 94.3882 119.028 94.7471 119.983 94.7471C121.026 94.7471 122.04 94.3284 122.822 93.491C124.3 91.876 124.242 89.3039 122.677 87.7787L88.293 54.0728Z" fill="white" fill-opacity="0.4"/>
</svg>
