<svg width="21" height="18" viewBox="0 0 21 18" fill="none" xmlns="http://www.w3.org/2000/svg">
<path d="M19.9686 5.77101C19.6912 3.0062 17.5306 1.00027 14.8266 1.00027C13.0251 1.00027 11.3757 1.8783 10.4475 3.28552C9.5278 1.86009 7.94595 0.999939 6.17336 0.999939C3.4697 0.999939 1.30868 3.00587 1.0317 5.77068C1.00978 5.8928 0.919889 6.53552 1.19321 7.58366C1.58712 9.09546 2.49699 10.4706 3.82378 11.5594L10.4431 17L17.1761 11.5598C18.5029 10.4706 19.4128 9.09579 19.8067 7.58366C20.08 6.53585 19.9902 5.89313 19.9686 5.77101ZM19.0953 7.43208C18.7357 8.81283 17.9022 10.0708 16.6872 11.0676L10.4475 16.1098L4.31489 11.069C3.09772 10.0701 2.26459 8.8125 1.90466 7.43175C1.64595 6.43987 1.75229 5.87956 1.75265 5.87592L1.75813 5.84249C1.99565 3.42022 3.85229 1.66185 6.17336 1.66185C7.88602 1.66185 9.39369 2.61501 10.1092 4.14899L10.4457 4.87147L10.7822 4.14899C11.4864 2.6385 13.0737 1.66218 14.8269 1.66218C17.1476 1.66218 19.0046 3.42055 19.2469 5.87427C19.2476 5.87956 19.354 6.4402 19.0953 7.43208Z" fill="#1B1A17" stroke="#1B1A17" stroke-width="0.75"/>
</svg>
