<svg width="16" height="16" viewBox="0 0 16 16" fill="none" xmlns="http://www.w3.org/2000/svg">
<path d="M15.8041 14.8637L11.9576 11.0171C12.911 9.85469 13.4857 8.3657 13.4857 6.74283C13.4857 3.02036 10.4653 -6.10352e-05 6.74286 -6.10352e-05C3.01714 -6.10352e-05 0 3.02036 0 6.74283C0 10.4653 3.01714 13.4857 6.74286 13.4857C8.36571 13.4857 9.85143 12.9143 11.0139 11.9608L14.8604 15.8041C15.1216 16.0653 15.5429 16.0653 15.8041 15.8041C16.0653 15.5461 16.0653 15.1217 15.8041 14.8637ZM6.74286 12.1437C3.76163 12.1437 1.33878 9.72081 1.33878 6.74283C1.33878 3.76486 3.76163 1.33872 6.74286 1.33872C9.72082 1.33872 12.1469 3.76486 12.1469 6.74283C12.1469 9.72081 9.72082 12.1437 6.74286 12.1437Z" fill="#1B1A17"/>
</svg>
