<svg width="23" height="24" viewBox="0 0 23 24" fill="none" xmlns="http://www.w3.org/2000/svg">
<path d="M6.6571 0.67334C2.98565 0.67334 0 3.66795 0 7.34836V17C0 20.6804 2.98565 23.6733 6.6571 23.6733H16.3429C20.0143 23.6733 23 20.6804 23 17V7.34836C23 3.66795 20.0143 0.67334 16.3429 0.67334H6.6571V0.67334ZM6.6571 2.65059H16.3429C18.9559 2.65059 21.0292 4.72898 21.0292 7.34836V17C21.0292 19.6194 18.9559 21.6961 16.3429 21.6961H6.6571C4.04408 21.6961 1.97241 19.6194 1.97241 17V7.34836C1.97241 4.72898 4.04408 2.65059 6.6571 2.65059ZM17.6727 4.62781C16.9107 4.62781 16.2934 5.24662 16.2934 6.01038C16.2934 6.77418 16.9107 7.39296 17.6727 7.39296C18.4346 7.39296 19.0519 6.77418 19.0519 6.01038C19.0519 5.24662 18.4346 4.62781 17.6727 4.62781ZM11.5 6.25154C8.24893 6.25154 5.59264 8.91434 5.59264 12.1733C5.59264 15.4323 8.24893 18.0951 11.5 18.0951C14.7511 18.0951 17.409 15.4323 17.409 12.1733C17.409 8.91434 14.7511 6.25154 11.5 6.25154ZM11.5 8.22879C13.6853 8.22879 15.4366 9.98273 15.4366 12.1733C15.4366 14.3639 13.6853 16.1179 11.5 16.1179C9.31473 16.1179 7.56504 14.3639 7.56504 12.1733C7.56504 9.98273 9.31473 8.22879 11.5 8.22879Z" fill="#5C5C50"/>
</svg>
