<svg width="22" height="18" viewBox="0 0 22 18" fill="none" xmlns="http://www.w3.org/2000/svg">
<path d="M22 2.43568C21.191 2.77709 20.321 3.00783 19.4081 3.11178C20.3398 2.5804 21.0552 1.73939 21.3922 0.737464C20.5202 1.22947 19.5546 1.58634 18.526 1.7787C17.7032 0.94482 16.5301 0.423584 15.232 0.423584C12.7393 0.423584 10.7189 2.34493 10.7189 4.71512C10.7189 5.05162 10.7584 5.37927 10.8357 5.69317C7.0846 5.51443 3.75901 3.80534 1.53295 1.20911C1.14443 1.84267 0.921886 2.57979 0.921886 3.36643C0.921886 4.85558 1.71835 6.16896 2.92973 6.93887C2.18992 6.91687 1.49391 6.72373 0.885376 6.40205C0.88451 6.42014 0.884504 6.43797 0.884504 6.45592C0.884504 8.53566 2.44044 10.2698 4.50492 10.6644C4.12653 10.7625 3.7279 10.8143 3.31624 10.8143C3.02512 10.8143 2.74286 10.7881 2.46681 10.7378C3.04153 12.4428 4.70801 13.6837 6.68334 13.7185C5.13742 14.8697 3.19166 15.5555 1.07697 15.5555C0.712916 15.5555 0.353368 15.5351 0 15.4957C1.99818 16.7133 4.37022 17.4236 6.91929 17.4236C15.2207 17.4236 19.7597 10.8843 19.7597 5.21252C19.7597 5.02654 19.7552 4.84182 19.747 4.65777C20.6285 4.0522 21.3936 3.29653 21.999 2.43571" fill="#5C5C50"/>
</svg>
